<mxfile host="app.diagrams.net" agent="Mozilla/5.0 (X11; Linux x86_64) AppleWebKit/537.36 (KHTML, like Gecko) Chrome/126.0.0.0 Safari/537.36" version="24.8.4">
  <diagram name="Page-1" id="c4acf3e9-155e-7222-9cf6-157b1a14988f">
    <mxGraphModel dx="989" dy="539" grid="1" gridSize="10" guides="1" tooltips="1" connect="1" arrows="1" fold="1" page="1" pageScale="1" pageWidth="850" pageHeight="1100" background="none" math="0" shadow="0">
      <root>
        <mxCell id="0" />
        <mxCell id="1" parent="0" />
        <mxCell id="0pQ39grcssDWJv7Kgd_o-16" value="Сервер" style="swimlane;" parent="1" vertex="1">
          <mxGeometry x="540" y="120" width="200" height="560" as="geometry" />
        </mxCell>
        <mxCell id="ppViq6x7rqcGXQTuzldO-9" value="" style="rounded=0;whiteSpace=wrap;html=1;fillColor=none;strokeColor=#d3d3d3;strokeWidth=2;" parent="0pQ39grcssDWJv7Kgd_o-16" vertex="1">
          <mxGeometry x="-460" y="-40" width="720" height="640" as="geometry" />
        </mxCell>
        <mxCell id="s2q-PGlsVIdpxvJ4nGfJ-2" style="edgeStyle=orthogonalEdgeStyle;rounded=0;orthogonalLoop=1;jettySize=auto;html=1;" edge="1" parent="0pQ39grcssDWJv7Kgd_o-16" source="0pQ39grcssDWJv7Kgd_o-5" target="s2q-PGlsVIdpxvJ4nGfJ-1">
          <mxGeometry relative="1" as="geometry" />
        </mxCell>
        <mxCell id="s2q-PGlsVIdpxvJ4nGfJ-3" value="нет" style="edgeLabel;html=1;align=center;verticalAlign=middle;resizable=0;points=[];" vertex="1" connectable="0" parent="s2q-PGlsVIdpxvJ4nGfJ-2">
          <mxGeometry x="-0.7948" y="1" relative="1" as="geometry">
            <mxPoint x="19" as="offset" />
          </mxGeometry>
        </mxCell>
        <mxCell id="0pQ39grcssDWJv7Kgd_o-5" value="&lt;font style=&quot;font-size: 9px;&quot;&gt;username занят?&lt;/font&gt;" style="rhombus;whiteSpace=wrap;html=1;" parent="0pQ39grcssDWJv7Kgd_o-16" vertex="1">
          <mxGeometry x="60" y="200" width="80" height="40" as="geometry" />
        </mxCell>
        <mxCell id="s2q-PGlsVIdpxvJ4nGfJ-18" style="edgeStyle=orthogonalEdgeStyle;rounded=0;orthogonalLoop=1;jettySize=auto;html=1;" edge="1" parent="0pQ39grcssDWJv7Kgd_o-16" source="0pQ39grcssDWJv7Kgd_o-42" target="s2q-PGlsVIdpxvJ4nGfJ-16">
          <mxGeometry relative="1" as="geometry" />
        </mxCell>
        <mxCell id="0pQ39grcssDWJv7Kgd_o-42" value="&lt;font style=&quot;font-size: 9px;&quot;&gt;Подключить клиента&lt;/font&gt;" style="rounded=1;whiteSpace=wrap;html=1;fillColor=#f8cecc;strokeColor=#b85450;" parent="0pQ39grcssDWJv7Kgd_o-16" vertex="1">
          <mxGeometry x="40" y="320" width="120" height="40" as="geometry" />
        </mxCell>
        <mxCell id="0pQ39grcssDWJv7Kgd_o-47" value="&lt;font style=&quot;font-size: 9px;&quot;&gt;Отдать список всех чатов и новых сообщений&lt;/font&gt;" style="rounded=1;whiteSpace=wrap;html=1;fillColor=#f8cecc;strokeColor=#b85450;" parent="0pQ39grcssDWJv7Kgd_o-16" vertex="1">
          <mxGeometry x="40" y="440" width="120" height="40" as="geometry" />
        </mxCell>
        <mxCell id="s2q-PGlsVIdpxvJ4nGfJ-1" value="&lt;font style=&quot;font-size: 9px;&quot;&gt;Добавляем username в список пользователей&lt;/font&gt;" style="rounded=1;whiteSpace=wrap;html=1;" vertex="1" parent="0pQ39grcssDWJv7Kgd_o-16">
          <mxGeometry x="40" y="260" width="120" height="40" as="geometry" />
        </mxCell>
        <mxCell id="s2q-PGlsVIdpxvJ4nGfJ-19" style="edgeStyle=orthogonalEdgeStyle;rounded=0;orthogonalLoop=1;jettySize=auto;html=1;" edge="1" parent="0pQ39grcssDWJv7Kgd_o-16" source="s2q-PGlsVIdpxvJ4nGfJ-16" target="0pQ39grcssDWJv7Kgd_o-47">
          <mxGeometry relative="1" as="geometry" />
        </mxCell>
        <mxCell id="s2q-PGlsVIdpxvJ4nGfJ-16" value="&lt;font style=&quot;font-size: 9px;&quot;&gt;Запросить у бд все чаты и новые сообщения&lt;/font&gt;" style="rounded=1;whiteSpace=wrap;html=1;fillColor=#f8cecc;strokeColor=#b85450;" vertex="1" parent="0pQ39grcssDWJv7Kgd_o-16">
          <mxGeometry x="40" y="380" width="120" height="40" as="geometry" />
        </mxCell>
        <mxCell id="5d2195bd80daf111-25" style="edgeStyle=orthogonalEdgeStyle;rounded=0;html=1;dashed=1;labelBackgroundColor=none;startFill=0;endArrow=open;endFill=0;endSize=10;fontFamily=Verdana;fontSize=10;" parent="1" edge="1">
          <mxGeometry relative="1" as="geometry">
            <Array as="points">
              <mxPoint x="370" y="340" />
              <mxPoint x="370" y="300" />
            </Array>
            <mxPoint x="450" y="300" as="targetPoint" />
          </mxGeometry>
        </mxCell>
        <mxCell id="0pQ39grcssDWJv7Kgd_o-21" style="edgeStyle=orthogonalEdgeStyle;rounded=0;orthogonalLoop=1;jettySize=auto;html=1;" parent="1" source="0pQ39grcssDWJv7Kgd_o-1" target="0pQ39grcssDWJv7Kgd_o-19" edge="1">
          <mxGeometry relative="1" as="geometry" />
        </mxCell>
        <mxCell id="0pQ39grcssDWJv7Kgd_o-1" value="" style="ellipse;html=1;shape=startState;fillColor=#000000;strokeColor=#000000;" parent="1" vertex="1">
          <mxGeometry x="230" y="160" width="20" height="20" as="geometry" />
        </mxCell>
        <mxCell id="0pQ39grcssDWJv7Kgd_o-15" value="Пользователь" style="swimlane;" parent="1" vertex="1">
          <mxGeometry x="140" y="120" width="200" height="560" as="geometry" />
        </mxCell>
        <mxCell id="0pQ39grcssDWJv7Kgd_o-17" value="Клиент" style="swimlane;" parent="1" vertex="1">
          <mxGeometry x="340" y="120" width="200" height="560" as="geometry" />
        </mxCell>
        <mxCell id="0pQ39grcssDWJv7Kgd_o-3" value="&lt;font style=&quot;font-size: 9px;&quot;&gt;Запрос у пользователя username для входа&lt;/font&gt;" style="rounded=1;whiteSpace=wrap;html=1;" parent="0pQ39grcssDWJv7Kgd_o-17" vertex="1">
          <mxGeometry x="40" y="80" width="120" height="40" as="geometry" />
        </mxCell>
        <mxCell id="0pQ39grcssDWJv7Kgd_o-8" value="&lt;font style=&quot;font-size: 9px;&quot;&gt;Клиент посылает запрос на подключение к веб сокету&lt;/font&gt;&lt;div style=&quot;font-size: 9px; line-height: 100%;&quot;&gt;&lt;font style=&quot;font-size: 9px;&quot;&gt;ws://localhost/&lt;/font&gt;&lt;/div&gt;" style="rounded=1;whiteSpace=wrap;html=1;fillColor=#f8cecc;strokeColor=#b85450;" parent="0pQ39grcssDWJv7Kgd_o-17" vertex="1">
          <mxGeometry x="40" y="260" width="120" height="40" as="geometry" />
        </mxCell>
        <mxCell id="0pQ39grcssDWJv7Kgd_o-55" value="&lt;font style=&quot;font-size: 9px;&quot;&gt;Отобразить все чаты и нвоые сообщения&lt;/font&gt;" style="rounded=1;whiteSpace=wrap;html=1;fillColor=#f8cecc;strokeColor=#b85450;" parent="0pQ39grcssDWJv7Kgd_o-17" vertex="1">
          <mxGeometry x="40" y="440" width="120" height="40" as="geometry" />
        </mxCell>
        <mxCell id="s2q-PGlsVIdpxvJ4nGfJ-8" value="" style="ellipse;html=1;shape=endState;fillColor=#000000;strokeColor=#000000;" vertex="1" parent="0pQ39grcssDWJv7Kgd_o-17">
          <mxGeometry x="90" y="510" width="20" height="20" as="geometry" />
        </mxCell>
        <mxCell id="s2q-PGlsVIdpxvJ4nGfJ-9" style="edgeStyle=orthogonalEdgeStyle;rounded=0;orthogonalLoop=1;jettySize=auto;html=1;entryX=0.5;entryY=0;entryDx=0;entryDy=0;" edge="1" parent="0pQ39grcssDWJv7Kgd_o-17" source="0pQ39grcssDWJv7Kgd_o-55" target="s2q-PGlsVIdpxvJ4nGfJ-8">
          <mxGeometry relative="1" as="geometry">
            <mxPoint x="100" y="510" as="targetPoint" />
          </mxGeometry>
        </mxCell>
        <mxCell id="0pQ39grcssDWJv7Kgd_o-22" style="edgeStyle=orthogonalEdgeStyle;rounded=0;orthogonalLoop=1;jettySize=auto;html=1;" parent="1" source="0pQ39grcssDWJv7Kgd_o-19" target="0pQ39grcssDWJv7Kgd_o-3" edge="1">
          <mxGeometry relative="1" as="geometry" />
        </mxCell>
        <mxCell id="0pQ39grcssDWJv7Kgd_o-19" value="&lt;font style=&quot;font-size: 9px;&quot;&gt;Заходит на сайт&lt;/font&gt;" style="rounded=1;whiteSpace=wrap;html=1;" parent="1" vertex="1">
          <mxGeometry x="180" y="200" width="120" height="40" as="geometry" />
        </mxCell>
        <mxCell id="0pQ39grcssDWJv7Kgd_o-28" style="edgeStyle=orthogonalEdgeStyle;rounded=0;orthogonalLoop=1;jettySize=auto;html=1;" parent="1" source="0pQ39grcssDWJv7Kgd_o-24" target="0pQ39grcssDWJv7Kgd_o-26" edge="1">
          <mxGeometry relative="1" as="geometry" />
        </mxCell>
        <mxCell id="0pQ39grcssDWJv7Kgd_o-24" value="&lt;font style=&quot;font-size: 9px;&quot;&gt;Отправляем серверу username&lt;/font&gt;" style="rounded=1;whiteSpace=wrap;html=1;" parent="1" vertex="1">
          <mxGeometry x="380" y="260" width="120" height="40" as="geometry" />
        </mxCell>
        <mxCell id="0pQ39grcssDWJv7Kgd_o-25" style="edgeStyle=orthogonalEdgeStyle;rounded=0;orthogonalLoop=1;jettySize=auto;html=1;" parent="1" source="0pQ39grcssDWJv7Kgd_o-3" target="0pQ39grcssDWJv7Kgd_o-24" edge="1">
          <mxGeometry relative="1" as="geometry" />
        </mxCell>
        <mxCell id="0pQ39grcssDWJv7Kgd_o-29" style="edgeStyle=orthogonalEdgeStyle;rounded=0;orthogonalLoop=1;jettySize=auto;html=1;" parent="1" source="0pQ39grcssDWJv7Kgd_o-26" target="0pQ39grcssDWJv7Kgd_o-5" edge="1">
          <mxGeometry relative="1" as="geometry" />
        </mxCell>
        <mxCell id="0pQ39grcssDWJv7Kgd_o-26" value="&lt;p style=&quot;line-height: 100%;&quot;&gt;&lt;font style=&quot;font-size: 9px;&quot;&gt;Проверяем есть ли такой username в списке пользователей&lt;/font&gt;&lt;/p&gt;" style="rounded=1;whiteSpace=wrap;html=1;" parent="1" vertex="1">
          <mxGeometry x="580" y="260" width="120" height="40" as="geometry" />
        </mxCell>
        <mxCell id="0pQ39grcssDWJv7Kgd_o-34" style="edgeStyle=orthogonalEdgeStyle;rounded=0;orthogonalLoop=1;jettySize=auto;html=1;entryX=0;entryY=0.5;entryDx=0;entryDy=0;" parent="1" source="0pQ39grcssDWJv7Kgd_o-31" target="0pQ39grcssDWJv7Kgd_o-3" edge="1">
          <mxGeometry relative="1" as="geometry">
            <mxPoint x="360" y="220" as="targetPoint" />
            <Array as="points">
              <mxPoint x="360" y="340" />
              <mxPoint x="360" y="220" />
            </Array>
          </mxGeometry>
        </mxCell>
        <mxCell id="0pQ39grcssDWJv7Kgd_o-31" value="&lt;font style=&quot;font-size: 9px;&quot;&gt;Говорим пользователю что такой username занят!&lt;/font&gt;" style="rounded=1;whiteSpace=wrap;html=1;" parent="1" vertex="1">
          <mxGeometry x="380" y="320" width="120" height="40" as="geometry" />
        </mxCell>
        <mxCell id="0pQ39grcssDWJv7Kgd_o-32" style="edgeStyle=orthogonalEdgeStyle;rounded=0;orthogonalLoop=1;jettySize=auto;html=1;" parent="1" source="0pQ39grcssDWJv7Kgd_o-5" target="0pQ39grcssDWJv7Kgd_o-31" edge="1">
          <mxGeometry relative="1" as="geometry" />
        </mxCell>
        <mxCell id="0pQ39grcssDWJv7Kgd_o-33" value="да" style="edgeLabel;html=1;align=center;verticalAlign=middle;resizable=0;points=[];" parent="0pQ39grcssDWJv7Kgd_o-32" vertex="1" connectable="0">
          <mxGeometry x="-0.2686" relative="1" as="geometry">
            <mxPoint x="17" y="-10" as="offset" />
          </mxGeometry>
        </mxCell>
        <mxCell id="0pQ39grcssDWJv7Kgd_o-43" style="edgeStyle=orthogonalEdgeStyle;rounded=0;orthogonalLoop=1;jettySize=auto;html=1;" parent="1" source="0pQ39grcssDWJv7Kgd_o-8" target="0pQ39grcssDWJv7Kgd_o-42" edge="1">
          <mxGeometry relative="1" as="geometry">
            <Array as="points">
              <mxPoint x="440" y="460" />
            </Array>
          </mxGeometry>
        </mxCell>
        <mxCell id="s2q-PGlsVIdpxvJ4nGfJ-4" style="edgeStyle=orthogonalEdgeStyle;rounded=0;orthogonalLoop=1;jettySize=auto;html=1;" edge="1" parent="1" source="s2q-PGlsVIdpxvJ4nGfJ-1" target="0pQ39grcssDWJv7Kgd_o-8">
          <mxGeometry relative="1" as="geometry" />
        </mxCell>
        <mxCell id="0pQ39grcssDWJv7Kgd_o-56" style="edgeStyle=orthogonalEdgeStyle;rounded=0;orthogonalLoop=1;jettySize=auto;html=1;" parent="1" source="0pQ39grcssDWJv7Kgd_o-47" target="0pQ39grcssDWJv7Kgd_o-55" edge="1">
          <mxGeometry relative="1" as="geometry" />
        </mxCell>
      </root>
    </mxGraphModel>
  </diagram>
</mxfile>
